<?xml version="1.0" encoding="utf-8"?>
<!-- Generator: Adobe Illustrator 23.0.0, SVG Export Plug-In . SVG Version: 6.00 Build 0)  -->
<svg version="1.1" id="Слой_1" xmlns="http://www.w3.org/2000/svg" xmlns:xlink="http://www.w3.org/1999/xlink" x="0px" y="0px"
	 viewBox="0 0 471.7 164.6" style="enable-background:new 0 0 471.7 164.6;" xml:space="preserve">
<style type="text/css">
	.st0{fill:#C20D19;}
	.st1{fill:#B2B2B2;}
	.st2{fill:#FFFFFF;}
	.st3{fill:url(#SVGID_1_);stroke:url(#SVGID_2_);stroke-width:2.8346;stroke-miterlimit:10;}
	.st4{fill:url(#SVGID_3_);stroke:url(#SVGID_4_);stroke-width:2.8346;stroke-miterlimit:10;}
	.st5{fill:url(#SVGID_5_);stroke:url(#SVGID_6_);stroke-width:2.8346;stroke-miterlimit:10;}
	.st6{fill:url(#SVGID_7_);stroke:url(#SVGID_8_);stroke-width:2.8346;stroke-miterlimit:10;}
	.st7{fill:url(#SVGID_9_);}
	.st8{fill:url(#SVGID_10_);}
	.st9{fill:url(#SVGID_11_);}
	.st10{fill:url(#SVGID_12_);}
</style>
<path class="st0" d="M438.3,80c-4.7-3.7-9.7-6.8-14.9-9.6c-5.2-2.8-10.6-5.2-16.1-7.4c-2.8-1.1-5.6-2.1-8.4-3s-5.7-1.7-8.5-2.5
	c-5.7-1.5-11.6-2.7-17.4-3.7c-2.9-0.5-5.9-0.8-8.8-1.2c-1.6-0.2-2.9-0.3-4.4-0.4c-1.5-0.1-3-0.2-4.5-0.3c-3-0.1-6-0.2-9-0.1
	c-3,0.1-6,0.2-8.9,0.4c-3,0.2-5.9,0.4-8.9,0.7c-2.9,0.3-5.9,0.7-8.8,1c-5.8,0.7-11.6,1.6-17.4,2.6l-17.3,3
	c-5.7,0.9-11.4,1.8-17.1,2.5s-11.4,1.4-17.1,1.8c-5.7,0.4-11.4,0.7-17.2,0.7c-5.7,0-11.4-0.2-17.1-0.7c-5.7-0.5-11.4-1.3-17-2.4
	c-2.8-0.5-5.6-1.2-8.4-1.8c-2.8-0.7-5.6-1.5-8.4-2.3c-5.5-1.7-11-3.6-16.5-5.7c5,3,10.3,5.6,15.7,7.9c5.4,2.4,11,4.3,16.6,6
	c5.7,1.7,11.5,2.9,17.3,3.9s11.8,1.6,17.7,1.9s11.9,0.4,17.8,0.2c5.9-0.2,11.8-0.6,17.7-1.2s11.7-1.3,17.5-2.2
	c5.8-0.8,11.6-1.7,17.3-2.6c5.7-0.9,11.5-1.8,17.2-2.5c5.7-0.8,11.4-1.4,17.1-1.9c5.7-0.4,11.4-0.7,17-0.6c1.4,0,2.8,0.1,4.2,0.1
	c1.4,0.1,3,0.1,4.3,0.2c2.8,0.2,5.7,0.4,8.5,0.8c5.7,0.6,11.3,1.5,16.9,2.6s11.2,2.4,16.7,4s10.9,3.5,16.3,5.7
	c2.7,1.1,5.3,2.2,7.9,3.5c2.5,1.2,5,2.4,7.3,3.8l0.4,8.5l0.5,9l0.5-9l0.4-9v-0.4L438.3,80z"/>
<path class="st1" d="M306.3,44.2c-5.2-1.8-10.5-3.4-15.7-5c-5.3-1.6-10.6-3.1-16-4.4c-5.4-1.3-10.8-2.6-16.2-3.6
	c-5.5-1-11-1.9-16.5-2.5s-11.1-1-16.7-1.2c-5.6-0.2-11.2,0-16.8,0.4s-11.2,1-16.7,1.9s-11,1.9-16.4,3.2c-5.4,1.2-10.8,2.8-16.1,4.3
	c-2.7,0.8-5.3,1.6-8,2.5s-5.3,1.8-7.8,2.7l-3.9,1.3c-1.3,0.4-2.5,0.9-3.8,1.3c-2.5,0.8-5.1,1.6-7.7,2.3c-5.2,1.4-10.4,2.5-15.7,3.2
	c-1.3,0.2-2.6,0.4-4,0.5c-1.3,0.2-2.7,0.3-4,0.4c-2.7,0.2-5.3,0.4-8,0.4C91,52,85.6,51.7,80.3,51c-2.6-0.3-5.3-0.8-7.9-1.4
	c-1.3-0.3-2.6-0.6-3.8-1c-1.2-0.4-2.6-0.8-3.6-1.2l-2.3-0.9l-0.9,1.9l-1.5,3.3c-0.5,1.1-0.9,2.2-1.4,3.3c-0.4,1.1-0.9,2.2-1.2,3.4
	c-0.4,1.1-0.7,2.3-1,3.4c-0.3,1.2-0.6,2.3-0.8,3.5s-0.4,2.4-0.6,3.5c-0.1,1.2-0.3,2.4-0.4,3.6c-0.1,1.2-0.1,2.4-0.2,3.6
	c0,1.2,0,2.4,0.1,3.6c0,0.6,0.1,1.2,0.1,1.8c0.1,0.6,0.1,1.2,0.2,1.8c0.2,1.2,0.4,2.3,0.6,3.5c0.3,1.2,0.5,2.3,0.9,3.4
	c0.3,1.1,0.7,2.3,1.1,3.3c0.4,1.1,0.9,2.2,1.4,3.2c1,2.1,2.2,4.1,3.7,5.9c-1.2-2-2.1-4.1-2.9-6.3c-0.8-2.2-1.4-4.4-1.8-6.6
	c-0.2-1.1-0.4-2.2-0.5-3.4c-0.1-1.1-0.2-2.3-0.3-3.4c0-1.1-0.1-2.3,0-3.4c0-1.1,0.1-2.3,0.2-3.4c0.1-1.1,0.2-2.2,0.4-3.4
	c0.2-1.1,0.4-2.2,0.6-3.3c0.3-1.1,0.5-2.2,0.8-3.3c0.3-1.1,0.6-2.2,1-3.2c0.3-1.1,0.8-2.1,1.2-3.2c0.4-1.1,0.9-2.1,1.3-3.1
	c0.5-1,1-2,1.5-3l0.5-1c0.7,0.3,1.3,0.5,2,0.7c1.4,0.5,2.7,0.9,4.1,1.3c2.7,0.8,5.5,1.4,8.3,1.9c5.6,1,11.2,1.5,16.8,1.6
	c5.6,0.1,11.3-0.2,16.9-0.8c5.6-0.7,11.2-1.7,16.6-3c2.7-0.7,5.5-1.4,8.2-2.2c1.4-0.4,2.7-0.8,4-1.3l3.9-1.3
	c5.2-1.8,10.3-3.4,15.5-4.9s10.4-2.9,15.7-4.2c2.6-0.7,5.3-1.2,7.9-1.8c2.7-0.5,5.3-1,8-1.4c5.3-0.9,10.7-1.6,16-2
	c5.4-0.5,10.7-0.8,16.1-0.8c5.4,0,10.8,0.2,16.2,0.5c5.4,0.4,10.8,0.9,16.2,1.7s10.8,1.6,16.1,2.5c5.4,1,10.7,2.1,16.1,3.2
	c10.7,2.3,21.4,4.8,32.2,7.2C316.7,47.8,311.5,45.9,306.3,44.2z"/>
<g>
	<path class="st2" d="M291.5,90h-3.1l-0.7,1.5h-2.4l4.2-8.8h3.5l1.1,8.8h-2.4L291.5,90z M291.3,88.3l-0.4-3.8l-1.8,3.8H291.3z"/>
	<path class="st2" d="M296.5,82.8h2.3l-1,5.7v0.4c0,0.3,0.1,0.5,0.3,0.6c0.2,0.1,0.5,0.2,1,0.2s0.9-0.1,1.1-0.2
		c0.3-0.2,0.4-0.5,0.5-0.9l1-5.7h2.3l-1,5.8c-0.2,1.1-0.6,1.9-1.1,2.3c-0.6,0.5-1.7,0.7-3.2,0.7c-1.3,0-2.1-0.1-2.6-0.4
		s-0.7-0.8-0.7-1.5c0-0.3,0-0.7,0.1-1.1L296.5,82.8z"/>
	<path class="st2" d="M309.3,84.8l-1.2,6.7h-2.3l1.2-6.7h-2.4l0.4-2h7.1l-0.4,2H309.3z"/>
	<path class="st2" d="M315.3,91.6c-1.2,0-2-0.2-2.6-0.5c-0.7-0.4-1-1-1-1.9c0-0.2,0-0.5,0.1-0.8c0.1-0.4,0.2-1.2,0.4-2.5
		s0.8-2.2,1.6-2.6c0.7-0.4,1.7-0.6,3-0.6c1.2,0,2,0.1,2.6,0.4c0.7,0.4,1,1,1,1.9c0,0.2,0,0.4-0.1,0.8s-0.2,1.2-0.4,2.5
		c-0.2,1.3-0.8,2.2-1.6,2.7C317.6,91.4,316.6,91.6,315.3,91.6z M315.6,89.6c0.6,0,1.1-0.1,1.3-0.2c0.3-0.2,0.5-0.6,0.6-1.3
		c0.1-0.7,0.2-1.2,0.3-1.7s0.1-0.7,0.1-0.8c0-0.4-0.1-0.6-0.3-0.7s-0.6-0.2-1.1-0.2c-0.7,0-1.1,0.1-1.3,0.2
		c-0.3,0.2-0.5,0.6-0.6,1.2c-0.1,0.7-0.2,1.2-0.3,1.7c-0.1,0.5-0.1,0.8-0.1,0.9c0,0.4,0.1,0.6,0.3,0.7S315.1,89.6,315.6,89.6z"/>
	<path class="st2" d="M330.4,90h-3.1l-0.7,1.5h-2.4l4.2-8.8h3.5l1.1,8.8h-2.4L330.4,90z M330.2,88.3l-0.4-3.8l-1.8,3.8H330.2z"/>
	<path class="st2" d="M342.3,85.9h-2.4c0-0.3,0.1-0.4,0.1-0.5c0-0.2-0.1-0.4-0.3-0.5s-0.5-0.2-1-0.2c-0.6,0-1.1,0.1-1.3,0.4
		c-0.2,0.2-0.3,0.6-0.5,1.3c-0.1,0.8-0.2,1.4-0.3,1.7s-0.1,0.5-0.1,0.6c0,0.3,0.1,0.5,0.3,0.7c0.2,0.1,0.5,0.2,1,0.2
		c0.6,0,0.9-0.1,1.1-0.2c0.3-0.2,0.5-0.6,0.5-1.2h2.4c-0.2,1.3-0.6,2.2-1.2,2.7c-0.6,0.4-1.6,0.7-3,0.7c-0.9,0-1.5,0-1.9-0.1
		c-0.6-0.1-1-0.3-1.3-0.6c-0.3-0.4-0.5-0.9-0.5-1.5c0-0.3,0-0.7,0.1-1.2c0.1-0.8,0.3-1.5,0.4-2.1c0.2-1.3,0.8-2.3,1.6-2.7
		c0.7-0.4,1.7-0.6,3.1-0.6c1.1,0,1.8,0.1,2.3,0.4s0.8,0.9,0.8,1.6C342.4,85,342.4,85.4,342.3,85.9z"/>
	<path class="st2" d="M351,85.9h-2.4c0-0.3,0.1-0.4,0.1-0.5c0-0.2-0.1-0.4-0.3-0.5s-0.5-0.2-1-0.2c-0.6,0-1.1,0.1-1.3,0.4
		c-0.2,0.2-0.3,0.6-0.5,1.3c-0.1,0.8-0.2,1.4-0.3,1.7s-0.1,0.5-0.1,0.6c0,0.3,0.1,0.5,0.3,0.7c0.2,0.1,0.5,0.2,1,0.2
		c0.6,0,0.9-0.1,1.1-0.2c0.3-0.2,0.5-0.6,0.5-1.2h2.4c-0.2,1.3-0.6,2.2-1.2,2.7c-0.6,0.4-1.6,0.7-3,0.7c-0.9,0-1.5,0-1.9-0.1
		c-0.6-0.1-1-0.3-1.3-0.6c-0.3-0.4-0.5-0.9-0.5-1.5c0-0.3,0-0.7,0.1-1.2c0.1-0.8,0.3-1.5,0.4-2.1c0.2-1.3,0.8-2.3,1.6-2.7
		c0.7-0.4,1.7-0.6,3.1-0.6c1.1,0,1.8,0.1,2.3,0.4s0.8,0.9,0.8,1.6C351.2,85,351.1,85.4,351,85.9z"/>
	<path class="st2" d="M354.9,84.7l-0.3,1.6h3.7l-0.3,1.6h-3.7l-0.3,1.7h4.1l-0.3,1.9h-6.4l1.5-8.8h6.3l-0.3,1.9h-4V84.7z"/>
	<path class="st2" d="M359.5,88.7h2.2v0.4c0,0.3,0.1,0.4,0.3,0.5c0.2,0.1,0.5,0.1,1.1,0.1s1-0.1,1.2-0.2c0.3-0.1,0.4-0.4,0.4-0.9
		c0-0.2-0.1-0.4-0.4-0.5s-0.9-0.2-1.8-0.3c-0.9-0.1-1.6-0.3-1.9-0.5c-0.4-0.3-0.5-0.7-0.5-1.4c0-1.3,0.5-2.2,1.4-2.7
		c0.7-0.4,1.6-0.6,2.8-0.6c1,0,1.8,0.1,2.2,0.3c0.6,0.3,1,0.8,1,1.5c0,0.2,0,0.4-0.1,0.7c0,0.1,0,0.2-0.1,0.3h-2.2v-0.3
		c0-0.2-0.1-0.4-0.2-0.5c-0.2-0.1-0.5-0.1-1-0.1c-0.7,0-1.1,0.1-1.3,0.3c-0.2,0.1-0.2,0.4-0.2,0.7c0,0.2,0.1,0.4,0.3,0.4
		c0.2,0.1,0.6,0.2,1.1,0.3c1.3,0.2,2.2,0.5,2.6,0.7s0.6,0.6,0.6,1.1c0,0.4-0.1,0.8-0.2,1.4c-0.2,0.7-0.4,1.2-0.7,1.4
		s-0.7,0.5-1.3,0.6s-1.3,0.2-2.2,0.2c-1.2,0-2-0.1-2.4-0.3c-0.6-0.3-0.9-0.8-0.9-1.7C359.4,89.4,359.5,89.1,359.5,88.7z"/>
	<path class="st2" d="M368.1,88.7h2.2v0.4c0,0.3,0.1,0.4,0.3,0.5c0.2,0.1,0.5,0.1,1.1,0.1s1-0.1,1.2-0.2c0.3-0.1,0.4-0.4,0.4-0.9
		c0-0.2-0.1-0.4-0.4-0.5s-0.9-0.2-1.8-0.3c-0.9-0.1-1.6-0.3-1.9-0.5c-0.4-0.3-0.5-0.7-0.5-1.4c0-1.3,0.5-2.2,1.4-2.7
		c0.7-0.4,1.6-0.6,2.8-0.6c1,0,1.8,0.1,2.2,0.3c0.6,0.3,1,0.8,1,1.5c0,0.2,0,0.4-0.1,0.7c0,0.1,0,0.2-0.1,0.3h-2.2v-0.3
		c0-0.2-0.1-0.4-0.2-0.5c-0.2-0.1-0.5-0.1-1-0.1c-0.7,0-1.1,0.1-1.3,0.3c-0.2,0.1-0.2,0.4-0.2,0.7c0,0.2,0.1,0.4,0.3,0.4
		c0.2,0.1,0.6,0.2,1.1,0.3c1.3,0.2,2.2,0.5,2.6,0.7s0.6,0.6,0.6,1.1c0,0.4-0.1,0.8-0.2,1.4c-0.2,0.7-0.4,1.2-0.7,1.4
		s-0.7,0.5-1.3,0.6s-1.3,0.2-2.2,0.2c-1.2,0-2-0.1-2.4-0.3c-0.6-0.3-0.9-0.8-0.9-1.7C368,89.4,368,89.1,368.1,88.7z"/>
	<path class="st2" d="M380.2,91.6c-1.2,0-2-0.2-2.6-0.5c-0.7-0.4-1-1-1-1.9c0-0.2,0-0.5,0.1-0.8c0.1-0.4,0.2-1.2,0.4-2.5
		s0.8-2.2,1.6-2.6c0.7-0.4,1.7-0.6,3-0.6c1.2,0,2,0.1,2.6,0.4c0.7,0.4,1,1,1,1.9c0,0.2,0,0.4-0.1,0.8s-0.2,1.2-0.4,2.5
		c-0.2,1.3-0.8,2.2-1.6,2.7C382.5,91.4,381.5,91.6,380.2,91.6z M380.5,89.6c0.6,0,1.1-0.1,1.3-0.2c0.3-0.2,0.5-0.6,0.6-1.3
		c0.1-0.7,0.2-1.2,0.3-1.7s0.1-0.7,0.1-0.8c0-0.4-0.1-0.6-0.3-0.7s-0.6-0.2-1.1-0.2c-0.7,0-1.1,0.1-1.3,0.2
		c-0.3,0.2-0.5,0.6-0.6,1.2c-0.1,0.7-0.2,1.2-0.3,1.7c-0.1,0.5-0.1,0.8-0.1,0.9c0,0.4,0.1,0.6,0.3,0.7S380,89.6,380.5,89.6z"/>
	<path class="st2" d="M388.3,89l-0.4,2.6h-2.3l1.5-8.8h4.5c0.9,0,1.6,0.1,2,0.4s0.6,0.7,0.6,1.4c0,0.3,0,0.5-0.1,0.8
		c-0.2,0.9-0.4,1.6-0.6,1.9c-0.3,0.4-0.8,0.7-1.5,0.8v0.1c0.5,0,0.8,0.2,1,0.4s0.3,0.5,0.3,0.8c0,0.1,0,0.2-0.1,0.4
		s-0.1,0.8-0.3,1.7h-2.3c0.1-0.4,0.2-0.9,0.2-1.4c0-0.2,0-0.3,0-0.4c0-0.2-0.1-0.4-0.2-0.6c-0.1-0.1-0.3-0.2-0.6-0.2L388.3,89
		L388.3,89z M389.1,84.7l-0.4,2.4h1.8c0.4,0,0.7-0.1,0.9-0.3c0.1-0.1,0.2-0.5,0.3-1.1c0-0.1,0-0.3,0-0.4c0-0.2-0.1-0.4-0.2-0.5
		s-0.3-0.1-0.6-0.1H389.1z"/>
	<path class="st2" d="M398.2,82.8l-1.5,8.8h-2.3l1.5-8.8H398.2z"/>
	<path class="st2" d="M401.7,84.7l-0.3,1.6h3.7l-0.3,1.6h-3.7l-0.3,1.7h4.1l-0.3,1.9h-6.4l1.5-8.8h6.3l-0.3,1.9h-4V84.7z"/>
	<path class="st2" d="M406.3,88.7h2.2v0.4c0,0.3,0.1,0.4,0.3,0.5c0.2,0.1,0.5,0.1,1.1,0.1s1-0.1,1.2-0.2c0.3-0.1,0.4-0.4,0.4-0.9
		c0-0.2-0.1-0.4-0.4-0.5s-0.9-0.2-1.8-0.3c-0.9-0.1-1.6-0.3-1.9-0.5c-0.4-0.3-0.5-0.7-0.5-1.4c0-1.3,0.5-2.2,1.4-2.7
		c0.7-0.4,1.6-0.6,2.8-0.6c1,0,1.8,0.1,2.2,0.3c0.6,0.3,1,0.8,1,1.5c0,0.2,0,0.4-0.1,0.7c0,0.1,0,0.2-0.1,0.3h-2.2v-0.3
		c0-0.2-0.1-0.4-0.2-0.5c-0.2-0.1-0.5-0.1-1-0.1c-0.7,0-1.1,0.1-1.3,0.3c-0.2,0.1-0.2,0.4-0.2,0.7c0,0.2,0.1,0.4,0.3,0.4
		c0.2,0.1,0.6,0.2,1.1,0.3c1.3,0.2,2.2,0.5,2.6,0.7s0.6,0.6,0.6,1.1c0,0.4-0.1,0.8-0.2,1.4c-0.2,0.7-0.4,1.2-0.7,1.4
		s-0.7,0.5-1.3,0.6s-1.3,0.2-2.2,0.2c-1.2,0-2-0.1-2.4-0.3c-0.6-0.3-0.9-0.8-0.9-1.7C406.2,89.4,406.3,89.1,406.3,88.7z"/>
</g>
<g>
	<path class="st2" d="M297.9,104.6l0.5-4.3h7.9l-4,23c-0.8,4.6-2.1,7.7-3.8,9.4c-1.9,1.7-5.1,2.6-9.6,2.6c-3.8,0-6.5-0.4-8-1.1
		c-1.7-0.9-2.5-2.4-2.5-4.6c0-0.8,0.1-1.6,0.3-2.5h7.4c0,1.1,0.2,1.8,0.7,2.1s1.3,0.4,2.5,0.4c1.7,0,2.9-0.2,3.5-0.7
		s1.1-1.6,1.4-3.3l0.9-5h-0.3c-0.7,1.4-1.8,2.5-3.1,3.2c-1.3,0.7-2.7,1.1-4.3,1.1c-2.9,0-4.9-0.6-6.2-1.9c-1.1-1.1-1.6-2.8-1.6-5.1
		c0-0.7,0.1-1.5,0.2-2.4s0.3-1.9,0.4-3c0.8-4.4,1.8-7.5,3.2-9.2c1.7-2.2,4.5-3.3,8.4-3.3c1.8,0,3.3,0.3,4.3,1s1.6,1.9,1.7,3.7
		L297.9,104.6L297.9,104.6z M296.2,112.4c0.1-0.7,0.2-1.3,0.3-1.8c0.1-0.5,0.1-1,0.1-1.5c0-1.1-0.3-1.9-0.8-2.4s-1.4-0.7-2.7-0.7
		c-1.7,0-2.9,0.5-3.6,1.4s-1.2,2.6-1.7,5.1c-0.3,1.8-0.5,3-0.5,3.8c0,1,0.3,1.7,0.8,2.1s1.4,0.5,2.7,0.5c1.8,0,3.1-0.4,3.7-1.1
		C295.2,116.9,295.8,115.2,296.2,112.4z"/>
	<path class="st2" d="M318.3,100.3l-0.6,3.5c1.6-2.7,3.9-4,6.9-4c1.8,0,3,0.5,3.8,1.4c0.6,0.8,1,2,1,3.6c0,0.9-0.3,2.9-0.8,6h-7.1
		c0.1-0.4,0.2-0.9,0.3-1.5c0.1-0.6,0.1-1,0.1-1.1c0-0.7-0.1-1.3-0.4-1.7c-0.2-0.4-0.7-0.6-1.4-0.6c-1.1,0-1.9,0.4-2.5,1.3
		c-0.5,0.7-0.8,1.6-1,2.8l-2.5,14.5h-7.9l4.2-24.1h7.9V100.3z"/>
	<path class="st2" d="M345.1,99.9c4,0,6.7,0.5,8.2,1.4s2.3,2.7,2.3,5.4c0,1.5-0.2,3.4-0.6,5.8c-0.9,5-2.3,8.3-4.1,9.9
		c-1.8,1.6-5.2,2.5-10.2,2.5c-3.9,0-6.6-0.5-8.1-1.5s-2.3-2.9-2.3-5.5c0-1.3,0.2-3.1,0.6-5.4c0.9-5,2.2-8.4,4.1-10
		C336.8,100.7,340.2,99.9,345.1,99.9z M347.1,112.4c0.1-0.7,0.2-1.3,0.3-1.8c0.1-0.5,0.1-1,0.1-1.5c0-1.1-0.3-1.9-0.8-2.4
		s-1.4-0.7-2.7-0.7c-1.7,0-2.9,0.5-3.6,1.4s-1.2,2.6-1.7,5.1c-0.3,1.8-0.5,3-0.5,3.8c0,1,0.3,1.7,0.8,2.1s1.4,0.5,2.7,0.5
		c1.8,0,3.1-0.4,3.7-1.1C346.1,116.9,346.6,115.2,347.1,112.4z"/>
	<path class="st2" d="M361.3,100.3h7.9l-2.3,13c-0.3,1.5-0.4,2.5-0.4,3c0,0.8,0.2,1.4,0.6,1.8s1,0.6,2,0.6c1.2,0,2.2-0.3,3.1-0.9
		c1-0.7,1.7-1.6,1.8-2.7l2.6-14.8h7.9l-4.2,24.1h-7.7l1.1-4.6h-0.4c-0.8,1.8-2,3.1-3.4,3.9c-1.3,0.7-2.8,1.1-4.6,1.1
		c-2.2,0-3.9-0.4-5.1-1.3c-1.3-1-1.9-2.5-1.9-4.5c0-0.4,0-0.7,0-0.9c0-0.2,0.1-0.6,0.2-1.2L361.3,100.3z"/>
	<path class="st2" d="M394.6,120.8l-2.5,14.1h-7.9l6.1-34.5h7.9l-0.8,3.8h0.4c0.7-1.5,1.7-2.6,3-3.3c1.3-0.7,2.8-1,4.7-1
		c2.5,0,4.5,0.5,5.8,1.6c1.3,1,2,2.7,2,4.9c0,0.7-0.1,1.7-0.3,2.9c0,0.2-0.4,2.1-1,5.5c-0.6,3.5-1.8,6-3.4,7.6
		c-1.7,1.6-4.2,2.4-7.5,2.4c-1.7,0-2.9-0.2-3.8-0.7c-1.1-0.6-1.8-1.7-2.2-3.3C395.1,120.8,394.6,120.8,394.6,120.8z M404.4,112.4
		c0.1-0.7,0.2-1.3,0.3-1.8c0.1-0.5,0.1-1,0.1-1.5c0-1.1-0.3-1.9-0.8-2.4s-1.4-0.7-2.7-0.7c-1.7,0-2.9,0.5-3.6,1.4s-1.2,2.6-1.7,5.1
		c-0.3,1.8-0.5,3-0.5,3.8c0,1,0.3,1.7,0.8,2.1s1.4,0.5,2.7,0.5c1.8,0,3.1-0.4,3.7-1.1C403.4,116.9,403.9,115.2,404.4,112.4z"/>
</g>
<g>
	
		<linearGradient id="SVGID_1_" gradientUnits="userSpaceOnUse" x1="98.3" y1="41.8" x2="98.3" y2="87.6" gradientTransform="matrix(1 0 0 -1 0 166)">
		<stop  offset="0" style="stop-color:#C20D19"/>
		<stop  offset="1" style="stop-color:#651500"/>
	</linearGradient>
	
		<linearGradient id="SVGID_2_" gradientUnits="userSpaceOnUse" x1="97.9837" y1="89.0173" x2="97.9837" y2="40.3827" gradientTransform="matrix(1 0 0 -1 0 166)">
		<stop  offset="0" style="stop-color:#C20D19"/>
		<stop  offset="1" style="stop-color:#651500"/>
	</linearGradient>
	<path class="st3" d="M107.9,116.3H91.5l-3.7,7.9H75.2L97,78.4h18.5l5.9,45.8H109L107.9,116.3z M106.9,107.5l-2.1-19.9l-9.2,19.9
		H106.9z"/>
	
		<linearGradient id="SVGID_3_" gradientUnits="userSpaceOnUse" x1="152.25" y1="41.8" x2="152.25" y2="87.6" gradientTransform="matrix(1 0 0 -1 0 166)">
		<stop  offset="0" style="stop-color:#C20D19"/>
		<stop  offset="1" style="stop-color:#651500"/>
	</linearGradient>
	
		<linearGradient id="SVGID_4_" gradientUnits="userSpaceOnUse" x1="152.6349" y1="89.0173" x2="152.6349" y2="40.3827" gradientTransform="matrix(1 0 0 -1 0 166)">
		<stop  offset="0" style="stop-color:#C20D19"/>
		<stop  offset="1" style="stop-color:#651500"/>
	</linearGradient>
	<path class="st4" d="M129.7,78.4h14l5.1,17.6h0.4l11.5-17.6h14.1l-21.9,29.7l-2.8,16.1h-12.2l2.8-16.1L129.7,78.4z"/>
	
		<linearGradient id="SVGID_5_" gradientUnits="userSpaceOnUse" x1="195.6" y1="41.2" x2="195.6" y2="87.6" gradientTransform="matrix(1 0 0 -1 0 166)">
		<stop  offset="0" style="stop-color:#C20D19"/>
		<stop  offset="1" style="stop-color:#651500"/>
	</linearGradient>
	
		<linearGradient id="SVGID_6_" gradientUnits="userSpaceOnUse" x1="195.7365" y1="89.0173" x2="195.7365" y2="39.7827" gradientTransform="matrix(1 0 0 -1 0 166)">
		<stop  offset="0" style="stop-color:#C20D19"/>
		<stop  offset="1" style="stop-color:#651500"/>
	</linearGradient>
	<path class="st5" d="M178.8,78.4H191l-5.2,29.7l-0.2,2c0,1.6,0.5,2.7,1.6,3.2c1,0.5,2.7,0.8,5.1,0.8c2.8,0,4.7-0.4,5.9-1.1
		c1.3-0.9,2.2-2.5,2.7-4.9l5.2-29.7h12.2l-5.4,30.5c-1,5.9-3,9.9-5.9,12.1c-3.3,2.5-8.8,3.8-16.6,3.8c-6.6,0-11.2-0.8-13.7-2.3
		s-3.8-4.1-3.8-7.7c0-1.5,0.2-3.4,0.6-5.9L178.8,78.4z"/>
	
		<linearGradient id="SVGID_7_" gradientUnits="userSpaceOnUse" x1="242" y1="41.2" x2="242" y2="88" gradientTransform="matrix(1 0 0 -1 0 166)">
		<stop  offset="0" style="stop-color:#C20D19"/>
		<stop  offset="1" style="stop-color:#651500"/>
	</linearGradient>
	
		<linearGradient id="SVGID_8_" gradientUnits="userSpaceOnUse" x1="242" y1="89.4173" x2="242" y2="39.7827" gradientTransform="matrix(1 0 0 -1 0 166)">
		<stop  offset="0" style="stop-color:#C20D19"/>
		<stop  offset="1" style="stop-color:#651500"/>
	</linearGradient>
	<path class="st6" d="M264.4,92.6H252l0.1-0.8c0-1.4-0.7-2.4-2-3c-1.3-0.5-3-0.8-5.1-0.8c-4.1,0-6.8,0.8-8.2,2.3
		c-1.1,1.2-2,3.8-2.7,7.9c-0.8,4.7-1.3,7.6-1.5,8.8c-0.2,1.2-0.3,2-0.3,2.5c0,2.1,0.6,3.5,1.9,4.2c1.3,0.7,3.3,1.1,6.1,1.1
		c3.2,0,5.4-0.5,6.6-1.5c1.2-1,2.1-3.1,2.7-6.2H241l1.5-8.5h20.8l-1.4,8c-1.3,7.6-3.5,12.5-6.5,14.8s-8.7,3.4-17,3.4
		c-6.7,0-11.5-0.7-14.2-2.2c-3.3-1.7-4.9-5-4.9-9.8c0-1.1,0.1-2.7,0.4-4.8c0.3-2,1-6.4,2.3-13.1c1.2-6.7,4-11.3,8.3-13.9
		c3.5-2,8.9-3,16.4-3c5.9,0,10.2,0.7,12.9,2c3.4,1.7,5.1,4.6,5.1,8.8C264.7,89.9,264.6,91.2,264.4,92.6z"/>
</g>
<g>
	
		<linearGradient id="SVGID_9_" gradientUnits="userSpaceOnUse" x1="98.3" y1="41.8" x2="98.3" y2="87.6" gradientTransform="matrix(1 0 0 -1 0 166)">
		<stop  offset="0" style="stop-color:#C20D19"/>
		<stop  offset="1" style="stop-color:#651500"/>
	</linearGradient>
	<path class="st7" d="M107.9,116.3H91.5l-3.7,7.9H75.2L97,78.4h18.5l5.9,45.8H109L107.9,116.3z M106.9,107.5l-2.1-19.9l-9.2,19.9
		H106.9z"/>
	
		<linearGradient id="SVGID_10_" gradientUnits="userSpaceOnUse" x1="152.25" y1="41.8" x2="152.25" y2="87.6" gradientTransform="matrix(1 0 0 -1 0 166)">
		<stop  offset="0" style="stop-color:#C20D19"/>
		<stop  offset="1" style="stop-color:#651500"/>
	</linearGradient>
	<path class="st8" d="M129.7,78.4h14l5.1,17.6h0.4l11.5-17.6h14.1l-21.9,29.7l-2.8,16.1h-12.2l2.8-16.1L129.7,78.4z"/>
	
		<linearGradient id="SVGID_11_" gradientUnits="userSpaceOnUse" x1="195.6" y1="41.2" x2="195.6" y2="87.6" gradientTransform="matrix(1 0 0 -1 0 166)">
		<stop  offset="0" style="stop-color:#C20D19"/>
		<stop  offset="1" style="stop-color:#651500"/>
	</linearGradient>
	<path class="st9" d="M178.8,78.4H191l-5.2,29.7l-0.2,2c0,1.6,0.5,2.7,1.6,3.2c1,0.5,2.7,0.8,5.1,0.8c2.8,0,4.7-0.4,5.9-1.1
		c1.3-0.9,2.2-2.5,2.7-4.9l5.2-29.7h12.2l-5.4,30.5c-1,5.9-3,9.9-5.9,12.1c-3.3,2.5-8.8,3.8-16.6,3.8c-6.6,0-11.2-0.8-13.7-2.3
		s-3.8-4.1-3.8-7.7c0-1.5,0.2-3.4,0.6-5.9L178.8,78.4z"/>
	
		<linearGradient id="SVGID_12_" gradientUnits="userSpaceOnUse" x1="242" y1="41.2" x2="242" y2="88" gradientTransform="matrix(1 0 0 -1 0 166)">
		<stop  offset="0" style="stop-color:#C20D19"/>
		<stop  offset="1" style="stop-color:#651500"/>
	</linearGradient>
	<path class="st10" d="M264.4,92.6H252l0.1-0.8c0-1.4-0.7-2.4-2-3c-1.3-0.5-3-0.8-5.1-0.8c-4.1,0-6.8,0.8-8.2,2.3
		c-1.1,1.2-2,3.8-2.7,7.9c-0.8,4.7-1.3,7.6-1.5,8.8c-0.2,1.2-0.3,2-0.3,2.5c0,2.1,0.6,3.5,1.9,4.2c1.3,0.7,3.3,1.1,6.1,1.1
		c3.2,0,5.4-0.5,6.6-1.5c1.2-1,2.1-3.1,2.7-6.2H241l1.5-8.5h20.8l-1.4,8c-1.3,7.6-3.5,12.5-6.5,14.8s-8.7,3.4-17,3.4
		c-6.7,0-11.5-0.7-14.2-2.2c-3.3-1.7-4.9-5-4.9-9.8c0-1.1,0.1-2.7,0.4-4.8c0.3-2,1-6.4,2.3-13.1c1.2-6.7,4-11.3,8.3-13.9
		c3.5-2,8.9-3,16.4-3c5.9,0,10.2,0.7,12.9,2c3.4,1.7,5.1,4.6,5.1,8.8C264.7,89.9,264.6,91.2,264.4,92.6z"/>
</g>
</svg>
