<?xml version="1.0" encoding="iso-8859-1"?>
<!-- Generator: Adobe Illustrator 18.0.0, SVG Export Plug-In . SVG Version: 6.00 Build 0)  -->
<!DOCTYPE svg PUBLIC "-//W3C//DTD SVG 1.1//EN" "http://www.w3.org/Graphics/SVG/1.1/DTD/svg11.dtd">
<svg version="1.1" id="Capa_1" xmlns="http://www.w3.org/2000/svg" xmlns:xlink="http://www.w3.org/1999/xlink" x="0px" y="0px"
	 viewBox="0 0 387.056 387.056" style="enable-background:new 0 0 387.056 387.056;" xml:space="preserve">
<g>
	<path d="M315.484,121.957C315.484,54.709,260.775,0,193.528,0C126.281,0,71.571,54.709,71.571,121.957c0,0,0,1.831,0,2.764
		c0,15.361,12.497,27.858,27.858,27.858h4.996c7.85,26.383,27.12,47.892,52.057,58.772c-35.644,14.633-60.812,49.714-60.812,90.569
		v77.636c0,4.142,3.358,7.5,7.5,7.5h180.716c4.143,0,7.5-3.358,7.5-7.5v-77.636c0-40.855-25.168-75.936-60.812-90.569
		c9.635-4.204,18.424-9.994,26.036-17.041l10.035,1.787c2.44,0.435,4.889,0.648,7.322,0.648c9.673,0,19.096-3.379,26.646-9.704
		c9.45-7.916,14.87-19.526,14.87-31.854V121.957z M193.528,15c51.047,0,93.849,35.95,104.437,83.859
		c-3.199-1.283-6.686-1.997-10.338-1.997h-5.873c-12.287-36.962-47.191-63.694-88.226-63.694c-41.035,0-75.939,26.731-88.226,63.694
		H99.43c-3.653,0-7.14,0.714-10.339,1.998C99.679,50.95,142.481,15,193.528,15z M100.582,137.579H99.43
		c-7.09,0-12.858-5.768-12.858-12.858c0-7.09,5.768-12.858,12.858-12.858h1.152V137.579z M238.508,232.388l-8.95,33.026
		l-25.032-18.675l19.256-21.934C228.965,226.846,233.893,229.392,238.508,232.388z M163.272,224.807l19.263,21.933l-25.041,18.677
		l-8.953-33.024C153.157,229.395,158.087,226.848,163.272,224.807z M193.53,236.527l-14.242-16.216
		c4.63-0.806,9.383-1.25,14.24-1.25c4.857,0,9.609,0.444,14.239,1.25L193.53,236.527z M110.67,301.919
		c0-23.241,9.631-44.264,25.096-59.325l10.135,37.388c0.65,2.396,2.443,4.316,4.79,5.126c0.798,0.276,1.625,0.411,2.448,0.411
		c1.595,0,3.171-0.509,4.484-1.488l28.404-21.185v109.209H110.67V301.919z M276.386,301.919v70.136h-75.358V262.844l28.4,21.188
		c1.313,0.98,2.89,1.489,4.485,1.489c0.822,0,1.649-0.135,2.447-0.411c2.348-0.811,4.142-2.73,4.791-5.127l10.134-37.392
		C266.752,257.651,276.386,278.676,276.386,301.919z M193.528,204.061c-42.979,0-77.946-34.966-77.946-77.946
		s34.967-77.946,77.946-77.946c42.98,0,77.947,34.966,77.947,77.946c0,19.988-7.569,38.237-19.983,52.047l-9.712-1.729
		c0.203-1.162,0.33-2.35,0.33-3.569c0-11.404-9.278-20.683-20.684-20.683c-11.404,0-20.683,9.278-20.683,20.683
		c0,11.405,9.278,20.683,20.683,20.683c4.228,0,8.16-1.28,11.439-3.466l4.091,0.729
		C224.537,199.173,209.593,204.061,193.528,204.061z M227.109,172.864c0,3.134-2.55,5.683-5.684,5.683s-5.683-2.549-5.683-5.683
		c0-3.133,2.549-5.683,5.683-5.683S227.109,169.73,227.109,172.864z M290.981,175.543c-6.039,5.058-13.951,7.166-21.705,5.786
		l-0.909-0.162c6.296-8.537,11.167-18.184,14.263-28.589h4.997c4.636,0,9.008-1.145,12.857-3.157v5.766
		C300.484,163.065,297.021,170.485,290.981,175.543z M287.627,137.579h-1.152v-25.716h1.152c7.09,0,12.857,5.768,12.857,12.858
		C300.484,131.811,294.717,137.579,287.627,137.579z"/>
	<path d="M221.991,293.557c-1.249-2.95-4.269-4.833-7.476-4.6c-3.065,0.223-5.73,2.361-6.623,5.298
		c-0.929,3.057,0.24,6.472,2.858,8.307c2.494,1.748,5.861,1.799,8.414,0.147C222.157,300.771,223.345,296.845,221.991,293.557
		C221.801,293.107,222.181,294.017,221.991,293.557z"/>
	<path d="M169.211,109.467c-2.576-6.105-11.503-6.03-13.917,0.17c-2.486,6.386,4.592,12.511,10.558,9.293
		C169.173,117.138,170.685,112.957,169.211,109.467C169.021,109.017,169.401,109.917,169.211,109.467z"/>
	<path d="M220.611,118.567c2.746,1.857,6.512,1.614,9.03-0.529c2.243-1.909,3.162-5.067,2.303-7.882
		c-0.954-3.125-3.904-5.315-7.173-5.321c-3.131-0.006-6.01,2.029-7.058,4.974C216.584,112.974,217.756,116.731,220.611,118.567
		C221.011,118.837,220.191,118.297,220.611,118.567z"/>
</g>
<g>
</g>
<g>
</g>
<g>
</g>
<g>
</g>
<g>
</g>
<g>
</g>
<g>
</g>
<g>
</g>
<g>
</g>
<g>
</g>
<g>
</g>
<g>
</g>
<g>
</g>
<g>
</g>
<g>
</g>
</svg>
